# xmcd
#
# Track frame offsets:
#	150
#	19009
#	39175
#	61893
#	88893
#	109654
#	129123
#	145998
#	169226
#	198048
#	215260
#
# Disc length: 3206 seconds
#
# Revision: 1
# Processed by: cddbd v1.5.2PL0 Copyright (c) Steve Scherf et al.
# Submitted via: EZCDAudioConverter 1.0.6.1
#
DISCID=8b0c840b
DTITLE=Nathan and the Zydeco Cha Chas - A New Road
DYEAR=2013
DGENRE=Zydeco
TTITLE0=Lookin' For What You're Lookin' For
TTITLE1=Come On In
TTITLE2=Still Alive
TTITLE3=I Can't Stop Lovin' You
TTITLE4=Zydeco Girl
TTITLE5=You're So Good
TTITLE6=Leroy Brown
TTITLE7=Hello Christmas
TTITLE8=Bon Amis
TTITLE9=Playin' On Me
TTITLE10=I'm Comin' Home
EXTD=
EXTT0=
EXTT1=
EXTT2=
EXTT3=
EXTT4=
EXTT5=
EXTT6=
EXTT7=
EXTT8=
EXTT9=
EXTT10=
PLAYORDER=
